<svg width="254" height="59" viewBox="0 0 254 59" fill="none" xmlns="http://www.w3.org/2000/svg">
<g clip-path="url(#clip0_286_3070)">
<path d="M57.9183 41.9323C57.5884 43.1597 57.0146 44.2381 55.9889 45.0333C55.0356 45.7713 53.9632 46.1479 52.7448 46.1464C46.7037 46.1388 40.6612 46.1433 34.6202 46.1433C34.4696 46.1433 34.319 46.1509 34.1684 46.1433C33.7858 46.1192 33.6216 46.193 33.8837 46.5982C35.423 48.9824 36.9517 51.3726 38.4758 53.7658C38.643 54.0293 38.8659 54.0745 39.1461 54.073C40.3314 54.0655 41.5182 54.0655 42.7035 54.073C43.5545 54.0775 44.0575 54.5203 44.0545 55.2448C44.05 55.9662 43.5469 56.4045 42.69 56.4045C33.5614 56.4075 24.4329 56.4075 15.3058 56.4045C14.4534 56.4045 13.9473 55.9617 13.9473 55.2388C13.9473 54.5143 14.4488 54.0775 15.3028 54.073C16.47 54.067 17.6373 54.0565 18.803 54.079C19.1931 54.0866 19.416 53.9435 19.6208 53.6212C21.0802 51.3214 22.5592 49.0321 24.0277 46.7368C24.1256 46.5846 24.3289 46.431 24.2371 46.2473C24.1407 46.0515 23.8952 46.1509 23.719 46.1509C17.809 46.1464 11.899 46.1464 5.989 46.1464C2.6861 46.1464 1.14233 45.0454 0.0820312 41.9353V10.4786C0.377229 9.41079 0.836594 8.43784 1.67249 7.67425C2.65598 6.7766 3.80062 6.27206 5.14407 6.27055C14.4232 6.26904 23.7024 6.26754 32.9815 6.27055C33.8506 6.27055 34.3386 6.69226 34.3461 7.42423C34.3536 8.17879 33.8626 8.60502 32.9529 8.60502C23.9373 8.60803 14.9218 8.60803 5.90617 8.60502C5.35794 8.60502 4.80671 8.61105 4.29162 8.80684C3.06263 9.27072 2.4888 10.2166 2.38789 11.4862C2.37885 11.5977 2.38186 11.7121 2.38186 11.8236C2.38186 21.404 2.38186 30.9843 2.38186 40.5647C2.38186 41.0572 2.42554 41.5452 2.61983 42C3.12287 43.1838 4.07022 43.723 5.31878 43.8044C5.44982 43.8134 5.58235 43.8089 5.71339 43.8089C21.2414 43.8089 36.7694 43.8089 52.2959 43.8119C53.6695 43.8119 54.769 43.3661 55.3624 42.0452C55.5898 41.5392 55.6214 40.9939 55.6199 40.4457C55.6184 34.8671 55.6184 29.2869 55.6199 23.7083C55.6199 22.886 55.9663 22.4085 56.6396 22.3197C57.2149 22.2444 57.5959 22.5697 57.9183 22.9929V41.9323ZM35.7483 53.9947C35.7091 53.9074 35.6835 53.82 35.6368 53.7462C34.0765 51.3093 32.5101 48.8754 30.9543 46.4355C30.7977 46.1915 30.5974 46.1403 30.3353 46.1418C29.4693 46.1494 28.6033 46.1584 27.7388 46.1373C27.3758 46.1283 27.1589 46.2533 26.9631 46.562C25.4917 48.8784 24.0006 51.1813 22.5231 53.4932C22.4207 53.6543 22.2369 53.7974 22.2957 54.0324C23.1496 54.1137 35.2814 54.0851 35.7483 53.9947ZM57.9183 17.6944C57.7707 18.0182 57.6532 18.3601 57.4709 18.6643C56.7043 19.937 55.5371 20.5138 54.0762 20.5214C51.9495 20.5319 49.8229 20.5319 47.6963 20.5184C47.2896 20.5154 46.9854 20.6343 46.6992 20.9265C45.648 22.0019 44.5756 23.0562 43.5093 24.118C43.3888 24.237 43.2713 24.3589 43.1433 24.4689C42.7427 24.8168 42.2863 24.9508 41.7848 24.7385C41.2757 24.5231 41.0724 24.0894 41.0649 23.5622C41.0528 22.7926 41.0272 22.02 41.0709 21.2518C41.1025 20.6886 40.9248 20.5033 40.3434 20.5078C38.6762 20.5214 37.4005 19.8316 36.6745 18.2773C36.4155 17.7215 36.3432 17.1221 36.3417 16.5196C36.3357 13.1384 36.3447 9.7572 36.3357 6.37598C36.3296 3.75534 38.3795 2.37273 40.3073 2.40737C44.8045 2.4872 49.3033 2.48419 53.8005 2.41039C55.998 2.37424 57.4122 3.5234 57.9183 5.29007V17.6914V17.6944ZM43.4701 20.5696C43.5153 20.5892 43.5605 20.6087 43.6057 20.6283C44.2247 20.0123 44.8572 19.4114 45.4552 18.7758C45.898 18.3059 46.401 18.098 47.0547 18.1056C49.3876 18.1297 51.7206 18.1131 54.0536 18.1161C54.4 18.1161 54.7268 18.0785 55.0205 17.8751C55.5311 17.5212 55.6184 16.9941 55.6184 16.4323C55.6184 13.1655 55.6199 9.89727 55.6184 6.63051C55.6184 5.21627 55.1726 4.77046 53.7644 4.76896C50.1889 4.76745 46.6149 4.76896 43.0394 4.76896C42.1176 4.76896 41.1944 4.7539 40.2741 4.77498C39.2952 4.79757 38.7545 5.30513 38.753 6.21031C38.7439 9.70298 38.7439 13.1957 38.753 16.6883C38.7545 17.595 39.2831 18.098 40.2079 18.1116C40.8284 18.1206 41.4504 18.1071 42.0709 18.1161C42.9565 18.1297 43.4264 18.5815 43.4671 19.4641C43.4837 19.8316 43.4701 20.2006 43.4701 20.5681V20.5696ZM28.8653 37.9787C26.4947 37.9787 24.1241 37.9787 21.7535 37.9787C21.377 37.9787 20.9974 37.9742 20.6435 37.8251C20.2233 37.6474 19.9642 37.2995 19.9627 36.8642C19.9552 35.2346 19.791 33.5959 20.1209 31.9784C20.6555 29.3653 22.0939 27.3832 24.3816 26.0277C24.7793 25.7913 24.8395 25.6934 24.4826 25.3424C22.6752 23.5652 22.0803 21.407 22.8017 18.9942C23.5307 16.5573 25.2431 15.0753 27.7418 14.5662C31.1607 13.8689 34.6443 16.3585 35.1368 19.7999C35.4471 21.9642 34.807 23.8047 33.2752 25.3394C32.9815 25.6331 32.9017 25.7551 33.328 26.0096C36.3251 27.8049 37.7589 30.4994 37.8222 33.9544C37.8373 34.7617 37.8297 35.5689 37.8222 36.3762C37.8117 37.5284 37.3869 37.9652 36.2001 37.9727C33.7542 37.9878 31.3083 37.9772 28.8623 37.9772L28.8653 37.9787ZM28.8488 35.5825C30.8429 35.5825 32.837 35.5719 34.8326 35.59C35.2723 35.5945 35.444 35.456 35.4184 35.0102C35.3717 34.2059 35.4516 33.4016 35.3145 32.5959C34.8808 30.0325 32.8008 27.8396 30.2811 27.332C27.5339 26.7793 24.829 27.9194 23.3665 30.1786C22.4267 31.632 22.3017 33.2254 22.3363 34.8821C22.3469 35.4093 22.4779 35.6036 23.0352 35.5945C24.972 35.5644 26.9104 35.5825 28.8488 35.5825ZM24.9374 20.7774C24.9284 22.9824 26.6529 24.7445 28.8352 24.7596C31.0281 24.7746 32.8083 23.0291 32.8189 20.8527C32.8294 18.6312 31.0703 16.8344 28.8819 16.8314C26.6935 16.8284 24.9464 18.577 24.9374 20.7774Z" fill="url(#paint0_linear_286_3070)"/>
</g>
<path d="M78.5256 19H74.571L80.5966 1.54545H85.3523L91.3693 19H87.4148L83.0426 5.53409H82.9062L78.5256 19ZM78.2784 12.1392H87.6193V15.0199H78.2784V12.1392ZM103.989 9.64205L100.665 9.84659C100.609 9.5625 100.487 9.30682 100.299 9.07955C100.112 8.84659 99.8643 8.66193 99.5575 8.52557C99.2564 8.38352 98.8956 8.3125 98.4751 8.3125C97.9126 8.3125 97.4382 8.43182 97.0518 8.67045C96.6655 8.90341 96.4723 9.21591 96.4723 9.60795C96.4723 9.92045 96.5973 10.1847 96.8473 10.4006C97.0973 10.6165 97.5263 10.7898 98.1342 10.9205L100.504 11.3977C101.776 11.6591 102.725 12.0795 103.35 12.6591C103.975 13.2386 104.288 14 104.288 14.9432C104.288 15.8011 104.035 16.554 103.529 17.2017C103.029 17.8494 102.342 18.3551 101.467 18.7188C100.597 19.0767 99.5945 19.2557 98.4581 19.2557C96.7251 19.2557 95.3445 18.8949 94.3161 18.1733C93.2933 17.446 92.6939 16.4574 92.5178 15.2074L96.0888 15.0199C96.1967 15.5483 96.4581 15.9517 96.8729 16.2301C97.2876 16.5028 97.8189 16.6392 98.4666 16.6392C99.103 16.6392 99.6143 16.517 100.001 16.2727C100.393 16.0227 100.592 15.7017 100.597 15.3097C100.592 14.9801 100.452 14.7102 100.18 14.5C99.907 14.2841 99.4865 14.1193 98.9183 14.0057L96.6513 13.554C95.3729 13.2983 94.4212 12.8551 93.7962 12.2244C93.1768 11.5937 92.8672 10.7898 92.8672 9.8125C92.8672 8.97159 93.0945 8.24716 93.549 7.6392C94.0092 7.03125 94.6541 6.5625 95.4837 6.23295C96.3189 5.90341 97.2962 5.73864 98.4155 5.73864C100.069 5.73864 101.37 6.08807 102.319 6.78693C103.273 7.4858 103.83 8.4375 103.989 9.64205ZM112.54 19.2557C111.193 19.2557 110.034 18.983 109.062 18.4375C108.097 17.8864 107.352 17.108 106.83 16.1023C106.307 15.0909 106.045 13.8949 106.045 12.5142C106.045 11.1676 106.307 9.9858 106.83 8.96875C107.352 7.9517 108.088 7.15909 109.037 6.59091C109.991 6.02273 111.111 5.73864 112.395 5.73864C113.259 5.73864 114.063 5.87784 114.807 6.15625C115.557 6.42898 116.21 6.84091 116.767 7.39205C117.33 7.94318 117.767 8.63636 118.08 9.47159C118.392 10.3011 118.548 11.2727 118.548 12.3864V13.3835H107.494V11.1335H115.131C115.131 10.6108 115.017 10.1477 114.79 9.74432C114.563 9.34091 114.247 9.02557 113.844 8.7983C113.446 8.56534 112.983 8.44886 112.455 8.44886C111.903 8.44886 111.415 8.5767 110.989 8.83239C110.568 9.08239 110.239 9.42045 110 9.84659C109.761 10.267 109.639 10.7358 109.634 11.2528V13.392C109.634 14.0398 109.753 14.5994 109.991 15.071C110.236 15.5426 110.58 15.9062 111.023 16.1619C111.466 16.4176 111.991 16.5455 112.599 16.5455C113.003 16.5455 113.372 16.4886 113.707 16.375C114.043 16.2614 114.33 16.0909 114.568 15.8636C114.807 15.6364 114.989 15.358 115.114 15.0284L118.472 15.25C118.301 16.0568 117.952 16.7614 117.423 17.3636C116.901 17.9602 116.224 18.4261 115.395 18.7614C114.571 19.0909 113.619 19.2557 112.54 19.2557ZM131.81 9.64205L128.486 9.84659C128.429 9.5625 128.307 9.30682 128.119 9.07955C127.932 8.84659 127.685 8.66193 127.378 8.52557C127.077 8.38352 126.716 8.3125 126.295 8.3125C125.733 8.3125 125.259 8.43182 124.872 8.67045C124.486 8.90341 124.293 9.21591 124.293 9.60795C124.293 9.92045 124.418 10.1847 124.668 10.4006C124.918 10.6165 125.347 10.7898 125.955 10.9205L128.324 11.3977C129.597 11.6591 130.545 12.0795 131.17 12.6591C131.795 13.2386 132.108 14 132.108 14.9432C132.108 15.8011 131.855 16.554 131.349 17.2017C130.849 17.8494 130.162 18.3551 129.287 18.7188C128.418 19.0767 127.415 19.2557 126.278 19.2557C124.545 19.2557 123.165 18.8949 122.136 18.1733C121.114 17.446 120.514 16.4574 120.338 15.2074L123.909 15.0199C124.017 15.5483 124.278 15.9517 124.693 16.2301C125.108 16.5028 125.639 16.6392 126.287 16.6392C126.923 16.6392 127.435 16.517 127.821 16.2727C128.213 16.0227 128.412 15.7017 128.418 15.3097C128.412 14.9801 128.273 14.7102 128 14.5C127.727 14.2841 127.307 14.1193 126.739 14.0057L124.472 13.554C123.193 13.2983 122.241 12.8551 121.616 12.2244C120.997 11.5937 120.688 10.7898 120.688 9.8125C120.688 8.97159 120.915 8.24716 121.369 7.6392C121.83 7.03125 122.474 6.5625 123.304 6.23295C124.139 5.90341 125.116 5.73864 126.236 5.73864C127.889 5.73864 129.19 6.08807 130.139 6.78693C131.094 7.4858 131.651 8.4375 131.81 9.64205ZM140.309 19.2557C138.985 19.2557 137.84 18.9744 136.874 18.4119C135.914 17.8437 135.173 17.054 134.65 16.0426C134.127 15.0256 133.866 13.8466 133.866 12.5057C133.866 11.1534 134.127 9.97159 134.65 8.96023C135.173 7.94318 135.914 7.15341 136.874 6.59091C137.84 6.02273 138.985 5.73864 140.309 5.73864C141.633 5.73864 142.775 6.02273 143.735 6.59091C144.701 7.15341 145.445 7.94318 145.968 8.96023C146.491 9.97159 146.752 11.1534 146.752 12.5057C146.752 13.8466 146.491 15.0256 145.968 16.0426C145.445 17.054 144.701 17.8437 143.735 18.4119C142.775 18.9744 141.633 19.2557 140.309 19.2557ZM140.326 16.4432C140.928 16.4432 141.431 16.2727 141.835 15.9318C142.238 15.5852 142.542 15.1136 142.746 14.517C142.957 13.9205 143.062 13.2415 143.062 12.4801C143.062 11.7188 142.957 11.0398 142.746 10.4432C142.542 9.84659 142.238 9.375 141.835 9.02841C141.431 8.68182 140.928 8.50852 140.326 8.50852C139.718 8.50852 139.207 8.68182 138.792 9.02841C138.383 9.375 138.073 9.84659 137.863 10.4432C137.658 11.0398 137.556 11.7188 137.556 12.4801C137.556 13.2415 137.658 13.9205 137.863 14.517C138.073 15.1136 138.383 15.5852 138.792 15.9318C139.207 16.2727 139.718 16.4432 140.326 16.4432ZM149.113 19V5.90909H152.633V8.19318H152.769C153.008 7.38068 153.408 6.76705 153.971 6.35227C154.533 5.93182 155.181 5.72159 155.914 5.72159C156.096 5.72159 156.292 5.73295 156.502 5.75568C156.712 5.77841 156.897 5.80966 157.056 5.84943V9.07102C156.886 9.01989 156.65 8.97443 156.349 8.93466C156.048 8.89489 155.772 8.875 155.522 8.875C154.988 8.875 154.511 8.99148 154.09 9.22443C153.675 9.4517 153.346 9.76989 153.102 10.179C152.863 10.5881 152.744 11.0597 152.744 11.5938V19H149.113ZM158.933 19V5.90909H162.564V19H158.933ZM159.453 4.22159L161.26 0.34375H164.618L162.018 4.22159H159.453ZM169.205 19.2472C168.37 19.2472 167.626 19.1023 166.972 18.8125C166.319 18.517 165.802 18.0824 165.421 17.5085C165.046 16.929 164.859 16.2074 164.859 15.3438C164.859 14.6165 164.992 14.0057 165.259 13.5114C165.526 13.017 165.89 12.6193 166.35 12.3182C166.81 12.017 167.333 11.7898 167.918 11.6364C168.509 11.483 169.129 11.375 169.776 11.3125C170.538 11.233 171.151 11.1591 171.617 11.0909C172.083 11.017 172.421 10.9091 172.631 10.767C172.842 10.625 172.947 10.4148 172.947 10.1364V10.0852C172.947 9.54545 172.776 9.12784 172.435 8.83239C172.1 8.53693 171.623 8.3892 171.004 8.3892C170.35 8.3892 169.83 8.53409 169.444 8.82386C169.058 9.10795 168.802 9.46591 168.677 9.89773L165.319 9.625C165.489 8.82955 165.825 8.14205 166.325 7.5625C166.825 6.97727 167.469 6.52841 168.259 6.21591C169.055 5.89773 169.975 5.73864 171.021 5.73864C171.748 5.73864 172.444 5.82386 173.109 5.99432C173.779 6.16477 174.373 6.42898 174.89 6.78693C175.413 7.14489 175.825 7.60511 176.126 8.16761C176.427 8.72443 176.577 9.39205 176.577 10.1705V19H173.134V17.1847H173.032C172.822 17.5938 172.54 17.9545 172.188 18.267C171.836 18.5739 171.413 18.8153 170.918 18.9915C170.424 19.1619 169.853 19.2472 169.205 19.2472ZM170.245 16.7415C170.779 16.7415 171.251 16.6364 171.66 16.4261C172.069 16.2102 172.39 15.9205 172.623 15.5568C172.856 15.1932 172.972 14.7812 172.972 14.321V12.9318C172.859 13.0057 172.702 13.0739 172.504 13.1364C172.31 13.1932 172.092 13.2472 171.847 13.2983C171.603 13.3437 171.359 13.3864 171.114 13.4261C170.87 13.4602 170.648 13.4915 170.45 13.5199C170.023 13.5824 169.651 13.6818 169.333 13.8182C169.015 13.9545 168.768 14.1392 168.592 14.3722C168.415 14.5994 168.327 14.8835 168.327 15.2244C168.327 15.7188 168.506 16.0966 168.864 16.358C169.228 16.6136 169.688 16.7415 170.245 16.7415ZM190.286 9.64205L186.962 9.84659C186.906 9.5625 186.783 9.30682 186.596 9.07955C186.408 8.84659 186.161 8.66193 185.854 8.52557C185.553 8.38352 185.192 8.3125 184.772 8.3125C184.21 8.3125 183.735 8.43182 183.349 8.67045C182.962 8.90341 182.769 9.21591 182.769 9.60795C182.769 9.92045 182.894 10.1847 183.144 10.4006C183.394 10.6165 183.823 10.7898 184.431 10.9205L186.8 11.3977C188.073 11.6591 189.022 12.0795 189.647 12.6591C190.272 13.2386 190.585 14 190.585 14.9432C190.585 15.8011 190.332 16.554 189.826 17.2017C189.326 17.8494 188.638 18.3551 187.763 18.7188C186.894 19.0767 185.891 19.2557 184.755 19.2557C183.022 19.2557 181.641 18.8949 180.613 18.1733C179.59 17.446 178.991 16.4574 178.815 15.2074L182.386 15.0199C182.494 15.5483 182.755 15.9517 183.17 16.2301C183.585 16.5028 184.116 16.6392 184.763 16.6392C185.4 16.6392 185.911 16.517 186.298 16.2727C186.69 16.0227 186.888 15.7017 186.894 15.3097C186.888 14.9801 186.749 14.7102 186.477 14.5C186.204 14.2841 185.783 14.1193 185.215 14.0057L182.948 13.554C181.67 13.2983 180.718 12.8551 180.093 12.2244C179.474 11.5937 179.164 10.7898 179.164 9.8125C179.164 8.97159 179.391 8.24716 179.846 7.6392C180.306 7.03125 180.951 6.5625 181.781 6.23295C182.616 5.90341 183.593 5.73864 184.712 5.73864C186.366 5.73864 187.667 6.08807 188.616 6.78693C189.57 7.4858 190.127 8.4375 190.286 9.64205ZM75.517 43V25.5455H82.4034C83.7273 25.5455 84.8551 25.7983 85.7869 26.304C86.7188 26.804 87.429 27.5 87.9176 28.392C88.4119 29.2784 88.6591 30.3011 88.6591 31.4602C88.6591 32.6193 88.4091 33.642 87.9091 34.5284C87.4091 35.4148 86.6847 36.1051 85.7358 36.5994C84.7926 37.0937 83.6506 37.3409 82.3097 37.3409H77.9205V34.3835H81.7131C82.4233 34.3835 83.0085 34.2614 83.4688 34.017C83.9347 33.767 84.2813 33.4233 84.5085 32.9858C84.7415 32.5426 84.858 32.0341 84.858 31.4602C84.858 30.8807 84.7415 30.375 84.5085 29.9432C84.2813 29.5057 83.9347 29.1676 83.4688 28.929C83.0028 28.6847 82.4119 28.5625 81.696 28.5625H79.2074V43H75.517ZM96.7429 43.2557C95.3963 43.2557 94.2372 42.983 93.2656 42.4375C92.2997 41.8864 91.5554 41.108 91.0327 40.1023C90.5099 39.0909 90.2486 37.8949 90.2486 36.5142C90.2486 35.1676 90.5099 33.9858 91.0327 32.9688C91.5554 31.9517 92.2912 31.1591 93.2401 30.5909C94.1946 30.0227 95.3139 29.7386 96.598 29.7386C97.4616 29.7386 98.2656 29.8778 99.0099 30.1562C99.7599 30.429 100.413 30.8409 100.97 31.392C101.533 31.9432 101.97 32.6364 102.283 33.4716C102.595 34.3011 102.751 35.2727 102.751 36.3864V37.3835H91.6974V35.1335H99.3338C99.3338 34.6108 99.2202 34.1477 98.9929 33.7443C98.7656 33.3409 98.4503 33.0256 98.0469 32.7983C97.6491 32.5653 97.1861 32.4489 96.6577 32.4489C96.1065 32.4489 95.6179 32.5767 95.1918 32.8324C94.7713 33.0824 94.4418 33.4205 94.2031 33.8466C93.9645 34.267 93.8423 34.7358 93.8366 35.2528V37.392C93.8366 38.0398 93.956 38.5994 94.1946 39.071C94.4389 39.5426 94.7827 39.9062 95.2259 40.1619C95.669 40.4176 96.1946 40.5455 96.8026 40.5455C97.206 40.5455 97.5753 40.4886 97.9105 40.375C98.2457 40.2614 98.5327 40.0909 98.7713 39.8636C99.0099 39.6364 99.1918 39.358 99.3168 39.0284L102.675 39.25C102.504 40.0568 102.155 40.7614 101.626 41.3636C101.104 41.9602 100.428 42.4261 99.598 42.7614C98.7741 43.0909 97.8224 43.2557 96.7429 43.2557ZM105.121 43V29.9091H108.641V32.1932H108.777C109.016 31.3807 109.416 30.767 109.979 30.3523C110.541 29.9318 111.189 29.7216 111.922 29.7216C112.104 29.7216 112.3 29.733 112.51 29.7557C112.72 29.7784 112.905 29.8097 113.064 29.8494V33.071C112.893 33.0199 112.658 32.9744 112.357 32.9347C112.055 32.8949 111.78 32.875 111.53 32.875C110.996 32.875 110.518 32.9915 110.098 33.2244C109.683 33.4517 109.354 33.7699 109.109 34.179C108.871 34.5881 108.751 35.0597 108.751 35.5938V43H105.121ZM125.833 33.642L122.509 33.8466C122.452 33.5625 122.33 33.3068 122.143 33.0795C121.955 32.8466 121.708 32.6619 121.401 32.5256C121.1 32.3835 120.739 32.3125 120.319 32.3125C119.756 32.3125 119.282 32.4318 118.896 32.6705C118.509 32.9034 118.316 33.2159 118.316 33.608C118.316 33.9205 118.441 34.1847 118.691 34.4006C118.941 34.6165 119.37 34.7898 119.978 34.9205L122.347 35.3977C123.62 35.6591 124.569 36.0795 125.194 36.6591C125.819 37.2386 126.131 38 126.131 38.9432C126.131 39.8011 125.879 40.554 125.373 41.2017C124.873 41.8494 124.185 42.3551 123.31 42.7188C122.441 43.0767 121.438 43.2557 120.302 43.2557C118.569 43.2557 117.188 42.8949 116.16 42.1733C115.137 41.446 114.538 40.4574 114.362 39.2074L117.933 39.0199C118.04 39.5483 118.302 39.9517 118.717 40.2301C119.131 40.5028 119.663 40.6392 120.31 40.6392C120.947 40.6392 121.458 40.517 121.844 40.2727C122.237 40.0227 122.435 39.7017 122.441 39.3097C122.435 38.9801 122.296 38.7102 122.023 38.5C121.751 38.2841 121.33 38.1193 120.762 38.0057L118.495 37.554C117.217 37.2983 116.265 36.8551 115.64 36.2244C115.021 35.5937 114.711 34.7898 114.711 33.8125C114.711 32.9716 114.938 32.2472 115.393 31.6392C115.853 31.0312 116.498 30.5625 117.327 30.233C118.163 29.9034 119.14 29.7386 120.259 29.7386C121.913 29.7386 123.214 30.0881 124.163 30.7869C125.117 31.4858 125.674 32.4375 125.833 33.642ZM134.332 43.2557C133.009 43.2557 131.864 42.9744 130.898 42.4119C129.938 41.8437 129.196 41.054 128.673 40.0426C128.151 39.0256 127.889 37.8466 127.889 36.5057C127.889 35.1534 128.151 33.9716 128.673 32.9602C129.196 31.9432 129.938 31.1534 130.898 30.5909C131.864 30.0227 133.009 29.7386 134.332 29.7386C135.656 29.7386 136.798 30.0227 137.759 30.5909C138.724 31.1534 139.469 31.9432 139.991 32.9602C140.514 33.9716 140.776 35.1534 140.776 36.5057C140.776 37.8466 140.514 39.0256 139.991 40.0426C139.469 41.054 138.724 41.8437 137.759 42.4119C136.798 42.9744 135.656 43.2557 134.332 43.2557ZM134.349 40.4432C134.952 40.4432 135.455 40.2727 135.858 39.9318C136.261 39.5852 136.565 39.1136 136.77 38.517C136.98 37.9205 137.085 37.2415 137.085 36.4801C137.085 35.7188 136.98 35.0398 136.77 34.4432C136.565 33.8466 136.261 33.375 135.858 33.0284C135.455 32.6818 134.952 32.5085 134.349 32.5085C133.741 32.5085 133.23 32.6818 132.815 33.0284C132.406 33.375 132.097 33.8466 131.886 34.4432C131.682 35.0398 131.58 35.7188 131.58 36.4801C131.58 37.2415 131.682 37.9205 131.886 38.517C132.097 39.1136 132.406 39.5852 132.815 39.9318C133.23 40.2727 133.741 40.4432 134.349 40.4432ZM146.767 35.4318V43H143.136V29.9091H146.597V32.2188H146.75C147.04 31.4574 147.526 30.8551 148.207 30.4119C148.889 29.9631 149.716 29.7386 150.688 29.7386C151.597 29.7386 152.389 29.9375 153.065 30.3352C153.741 30.733 154.267 31.3011 154.642 32.0398C155.017 32.7727 155.205 33.6477 155.205 34.6648V43H151.574V35.3125C151.58 34.5114 151.375 33.8864 150.96 33.4375C150.545 32.983 149.974 32.7557 149.247 32.7557C148.759 32.7557 148.327 32.8608 147.952 33.071C147.582 33.2812 147.293 33.5881 147.082 33.9915C146.878 34.3892 146.773 34.8693 146.767 35.4318ZM161.799 43.2472C160.964 43.2472 160.219 43.1023 159.566 42.8125C158.913 42.517 158.396 42.0824 158.015 41.5085C157.64 40.929 157.452 40.2074 157.452 39.3438C157.452 38.6165 157.586 38.0057 157.853 37.5114C158.12 37.017 158.484 36.6193 158.944 36.3182C159.404 36.017 159.927 35.7898 160.512 35.6364C161.103 35.483 161.722 35.375 162.37 35.3125C163.131 35.233 163.745 35.1591 164.211 35.0909C164.677 35.017 165.015 34.9091 165.225 34.767C165.435 34.625 165.54 34.4148 165.54 34.1364V34.0852C165.54 33.5455 165.37 33.1278 165.029 32.8324C164.694 32.5369 164.217 32.3892 163.597 32.3892C162.944 32.3892 162.424 32.5341 162.038 32.8239C161.651 33.108 161.396 33.4659 161.271 33.8977L157.913 33.625C158.083 32.8295 158.418 32.142 158.918 31.5625C159.418 30.9773 160.063 30.5284 160.853 30.2159C161.648 29.8977 162.569 29.7386 163.614 29.7386C164.342 29.7386 165.038 29.8239 165.702 29.9943C166.373 30.1648 166.967 30.429 167.484 30.7869C168.006 31.1449 168.418 31.6051 168.719 32.1676C169.021 32.7244 169.171 33.392 169.171 34.1705V43H165.728V41.1847H165.626C165.415 41.5938 165.134 41.9545 164.782 42.267C164.43 42.5739 164.006 42.8153 163.512 42.9915C163.018 43.1619 162.447 43.2472 161.799 43.2472ZM162.839 40.7415C163.373 40.7415 163.844 40.6364 164.254 40.4261C164.663 40.2102 164.984 39.9205 165.217 39.5568C165.45 39.1932 165.566 38.7812 165.566 38.321V36.9318C165.452 37.0057 165.296 37.0739 165.097 37.1364C164.904 37.1932 164.685 37.2472 164.441 37.2983C164.197 37.3437 163.952 37.3864 163.708 37.4261C163.464 37.4602 163.242 37.4915 163.043 37.5199C162.617 37.5824 162.245 37.6818 161.927 37.8182C161.609 37.9545 161.362 38.1392 161.185 38.3722C161.009 38.5994 160.921 38.8835 160.921 39.2244C160.921 39.7188 161.1 40.0966 161.458 40.358C161.822 40.6136 162.282 40.7415 162.839 40.7415ZM175.619 25.5455V43H171.988V25.5455H175.619ZM178.527 43V29.9091H182.158V43H178.527ZM180.351 28.2216C179.811 28.2216 179.348 28.0426 178.962 27.6847C178.581 27.321 178.391 26.8864 178.391 26.3807C178.391 25.8807 178.581 25.4517 178.962 25.0938C179.348 24.7301 179.811 24.5483 180.351 24.5483C180.891 24.5483 181.351 24.7301 181.732 25.0938C182.118 25.4517 182.311 25.8807 182.311 26.3807C182.311 26.8864 182.118 27.321 181.732 27.6847C181.351 28.0426 180.891 28.2216 180.351 28.2216ZM184.998 43V40.8352L191.407 32.9006V32.8068H185.219V29.9091H195.779V32.2699L189.762 40.0085V40.1023H196.001V43H184.998ZM202.51 43.2472C201.675 43.2472 200.93 43.1023 200.277 42.8125C199.624 42.517 199.107 42.0824 198.726 41.5085C198.351 40.929 198.163 40.2074 198.163 39.3438C198.163 38.6165 198.297 38.0057 198.564 37.5114C198.831 37.017 199.195 36.6193 199.655 36.3182C200.115 36.017 200.638 35.7898 201.223 35.6364C201.814 35.483 202.433 35.375 203.081 35.3125C203.842 35.233 204.456 35.1591 204.922 35.0909C205.388 35.017 205.726 34.9091 205.936 34.767C206.146 34.625 206.251 34.4148 206.251 34.1364V34.0852C206.251 33.5455 206.081 33.1278 205.74 32.8324C205.405 32.5369 204.928 32.3892 204.308 32.3892C203.655 32.3892 203.135 32.5341 202.749 32.8239C202.362 33.108 202.107 33.4659 201.982 33.8977L198.624 33.625C198.794 32.8295 199.129 32.142 199.629 31.5625C200.129 30.9773 200.774 30.5284 201.564 30.2159C202.359 29.8977 203.28 29.7386 204.325 29.7386C205.053 29.7386 205.749 29.8239 206.413 29.9943C207.084 30.1648 207.678 30.429 208.195 30.7869C208.717 31.1449 209.129 31.6051 209.43 32.1676C209.732 32.7244 209.882 33.392 209.882 34.1705V43H206.439V41.1847H206.337C206.126 41.5938 205.845 41.9545 205.493 42.267C205.141 42.5739 204.717 42.8153 204.223 42.9915C203.729 43.1619 203.158 43.2472 202.51 43.2472ZM203.55 40.7415C204.084 40.7415 204.555 40.6364 204.964 40.4261C205.374 40.2102 205.695 39.9205 205.928 39.5568C206.161 39.1932 206.277 38.7812 206.277 38.321V36.9318C206.163 37.0057 206.007 37.0739 205.808 37.1364C205.615 37.1932 205.396 37.2472 205.152 37.2983C204.908 37.3437 204.663 37.3864 204.419 37.4261C204.175 37.4602 203.953 37.4915 203.754 37.5199C203.328 37.5824 202.956 37.6818 202.638 37.8182C202.32 37.9545 202.072 38.1392 201.896 38.3722C201.72 38.5994 201.632 38.8835 201.632 39.2244C201.632 39.7188 201.811 40.0966 202.169 40.358C202.533 40.6136 202.993 40.7415 203.55 40.7415ZM217.523 43.2131C216.528 43.2131 215.628 42.9574 214.821 42.446C214.02 41.929 213.384 41.1705 212.912 40.1705C212.446 39.1648 212.213 37.9318 212.213 36.4716C212.213 34.9716 212.455 33.7244 212.938 32.7301C213.42 31.7301 214.063 30.983 214.864 30.4886C215.67 29.9886 216.554 29.7386 217.514 29.7386C218.247 29.7386 218.858 29.8636 219.347 30.1136C219.841 30.358 220.239 30.6648 220.54 31.0341C220.847 31.3977 221.08 31.7557 221.239 32.108H221.349V25.5455H224.972V43H221.392V40.9034H221.239C221.068 41.267 220.827 41.6278 220.514 41.9858C220.207 42.3381 219.807 42.6307 219.312 42.8636C218.824 43.0966 218.227 43.2131 217.523 43.2131ZM218.673 40.3239C219.259 40.3239 219.753 40.1648 220.156 39.8466C220.565 39.5227 220.878 39.071 221.094 38.4915C221.315 37.9119 221.426 37.233 221.426 36.4545C221.426 35.6761 221.318 35 221.102 34.4261C220.886 33.8523 220.574 33.4091 220.165 33.0966C219.756 32.7841 219.259 32.6278 218.673 32.6278C218.077 32.6278 217.574 32.7898 217.165 33.1136C216.756 33.4375 216.446 33.8864 216.236 34.4602C216.026 35.0341 215.92 35.6989 215.92 36.4545C215.92 37.2159 216.026 37.8892 216.236 38.4744C216.452 39.054 216.761 39.5085 217.165 39.8381C217.574 40.1619 218.077 40.3239 218.673 40.3239ZM231.69 43.2472C230.854 43.2472 230.11 43.1023 229.457 42.8125C228.803 42.517 228.286 42.0824 227.906 41.5085C227.531 40.929 227.343 40.2074 227.343 39.3438C227.343 38.6165 227.477 38.0057 227.744 37.5114C228.011 37.017 228.374 36.6193 228.835 36.3182C229.295 36.017 229.817 35.7898 230.403 35.6364C230.994 35.483 231.613 35.375 232.261 35.3125C233.022 35.233 233.636 35.1591 234.102 35.0909C234.567 35.017 234.906 34.9091 235.116 34.767C235.326 34.625 235.431 34.4148 235.431 34.1364V34.0852C235.431 33.5455 235.261 33.1278 234.92 32.8324C234.585 32.5369 234.107 32.3892 233.488 32.3892C232.835 32.3892 232.315 32.5341 231.928 32.8239C231.542 33.108 231.286 33.4659 231.161 33.8977L227.803 33.625C227.974 32.8295 228.309 32.142 228.809 31.5625C229.309 30.9773 229.954 30.5284 230.744 30.2159C231.539 29.8977 232.46 29.7386 233.505 29.7386C234.232 29.7386 234.928 29.8239 235.593 29.9943C236.263 30.1648 236.857 30.429 237.374 30.7869C237.897 31.1449 238.309 31.6051 238.61 32.1676C238.911 32.7244 239.062 33.392 239.062 34.1705V43H235.619V41.1847H235.516C235.306 41.5938 235.025 41.9545 234.673 42.267C234.32 42.5739 233.897 42.8153 233.403 42.9915C232.908 43.1619 232.337 43.2472 231.69 43.2472ZM232.729 40.7415C233.263 40.7415 233.735 40.6364 234.144 40.4261C234.553 40.2102 234.874 39.9205 235.107 39.5568C235.34 39.1932 235.457 38.7812 235.457 38.321V36.9318C235.343 37.0057 235.187 37.0739 234.988 37.1364C234.795 37.1932 234.576 37.2472 234.332 37.2983C234.087 37.3437 233.843 37.3864 233.599 37.4261C233.354 37.4602 233.133 37.4915 232.934 37.5199C232.508 37.5824 232.136 37.6818 231.817 37.8182C231.499 37.9545 231.252 38.1392 231.076 38.3722C230.9 38.5994 230.812 38.8835 230.812 39.2244C230.812 39.7188 230.991 40.0966 231.349 40.358C231.712 40.6136 232.173 40.7415 232.729 40.7415ZM252.771 33.642L249.447 33.8466C249.39 33.5625 249.268 33.3068 249.08 33.0795C248.893 32.8466 248.646 32.6619 248.339 32.5256C248.038 32.3835 247.677 32.3125 247.256 32.3125C246.694 32.3125 246.219 32.4318 245.833 32.6705C245.447 32.9034 245.254 33.2159 245.254 33.608C245.254 33.9205 245.379 34.1847 245.629 34.4006C245.879 34.6165 246.308 34.7898 246.915 34.9205L249.285 35.3977C250.558 35.6591 251.506 36.0795 252.131 36.6591C252.756 37.2386 253.069 38 253.069 38.9432C253.069 39.8011 252.816 40.554 252.31 41.2017C251.81 41.8494 251.123 42.3551 250.248 42.7188C249.379 43.0767 248.376 43.2557 247.239 43.2557C245.506 43.2557 244.126 42.8949 243.097 42.1733C242.075 41.446 241.475 40.4574 241.299 39.2074L244.87 39.0199C244.978 39.5483 245.239 39.9517 245.654 40.2301C246.069 40.5028 246.6 40.6392 247.248 40.6392C247.884 40.6392 248.396 40.517 248.782 40.2727C249.174 40.0227 249.373 39.7017 249.379 39.3097C249.373 38.9801 249.234 38.7102 248.961 38.5C248.688 38.2841 248.268 38.1193 247.7 38.0057L245.433 37.554C244.154 37.2983 243.202 36.8551 242.577 36.2244C241.958 35.5937 241.648 34.7898 241.648 33.8125C241.648 32.9716 241.876 32.2472 242.33 31.6392C242.79 31.0312 243.435 30.5625 244.265 30.233C245.1 29.9034 246.077 29.7386 247.197 29.7386C248.85 29.7386 250.151 30.0881 251.1 30.7869C252.055 31.4858 252.612 32.4375 252.771 33.642Z" fill="url(#paint1_linear_286_3070)"/>
<path d="M74.799 58V50.7273H77.3913C77.9571 50.7273 78.4259 50.8303 78.7976 51.0362C79.1693 51.2422 79.4474 51.5239 79.6321 51.8814C79.8168 52.2365 79.9091 52.6366 79.9091 53.0817C79.9091 53.5291 79.8156 53.9316 79.6286 54.2891C79.4439 54.6442 79.1645 54.9259 78.7905 55.1342C78.4188 55.3402 77.9512 55.4432 77.3878 55.4432H75.6051V54.5128H77.2884C77.6458 54.5128 77.9358 54.4512 78.1584 54.3281C78.3809 54.2027 78.5443 54.0322 78.6484 53.8168C78.7526 53.6013 78.8047 53.3563 78.8047 53.0817C78.8047 52.8071 78.7526 52.5632 78.6484 52.3501C78.5443 52.1371 78.3797 51.9702 78.1548 51.8494C77.9323 51.7287 77.6387 51.6683 77.2741 51.6683H75.8963V58H74.799ZM84.2955 58V50.7273H86.8878C87.4513 50.7273 87.9188 50.8243 88.2905 51.0185C88.6646 51.2126 88.9439 51.4813 89.1286 51.8246C89.3132 52.1655 89.4056 52.5597 89.4056 53.0071C89.4056 53.4522 89.3121 53.844 89.125 54.1825C88.9404 54.5187 88.661 54.7803 88.287 54.9673C87.9153 55.1544 87.4477 55.2479 86.8843 55.2479H84.9205V54.3033H86.7848C87.14 54.3033 87.4288 54.2524 87.6513 54.1506C87.8762 54.0488 88.0408 53.9008 88.1449 53.7067C88.2491 53.5125 88.3012 53.2794 88.3012 53.0071C88.3012 52.7325 88.2479 52.4946 88.1414 52.2933C88.0372 52.0921 87.8727 51.9382 87.6478 51.8317C87.4252 51.7228 87.1328 51.6683 86.7706 51.6683H85.3928V58H84.2955ZM87.8857 54.7188L89.6826 58H88.4326L86.6712 54.7188H87.8857ZM100.158 54.3636C100.158 55.1402 100.016 55.8078 99.7321 56.3665C99.448 56.9228 99.0586 57.3513 98.5638 57.652C98.0714 57.9503 97.5115 58.0994 96.8841 58.0994C96.2544 58.0994 95.6921 57.9503 95.1973 57.652C94.7049 57.3513 94.3167 56.9216 94.0326 56.3629C93.7485 55.8042 93.6064 55.1378 93.6064 54.3636C93.6064 53.5871 93.7485 52.9207 94.0326 52.3643C94.3167 51.8056 94.7049 51.3771 95.1973 51.0788C95.6921 50.7782 96.2544 50.6278 96.8841 50.6278C97.5115 50.6278 98.0714 50.7782 98.5638 51.0788C99.0586 51.3771 99.448 51.8056 99.7321 52.3643C100.016 52.9207 100.158 53.5871 100.158 54.3636ZM99.0716 54.3636C99.0716 53.7718 98.9757 53.2734 98.784 52.8686C98.5946 52.4614 98.3342 52.1536 98.0027 51.9453C97.6737 51.7346 97.3008 51.6293 96.8841 51.6293C96.4651 51.6293 96.091 51.7346 95.762 51.9453C95.4329 52.1536 95.1725 52.4614 94.9807 52.8686C94.7913 53.2734 94.6966 53.7718 94.6966 54.3636C94.6966 54.9555 94.7913 55.455 94.9807 55.8622C95.1725 56.267 95.4329 56.5748 95.762 56.7855C96.091 56.9938 96.4651 57.098 96.8841 57.098C97.3008 57.098 97.6737 56.9938 98.0027 56.7855C98.3342 56.5748 98.5946 56.267 98.784 55.8622C98.9757 55.455 99.0716 54.9555 99.0716 54.3636ZM104.626 58V50.7273H109.136V51.6719H105.724V53.8878H108.813V54.8288H105.724V58H104.626ZM113.586 58V50.7273H118.145V51.6719H114.683V53.8878H117.907V54.8288H114.683V57.0554H118.188V58H113.586ZM126.678 52.6378C126.64 52.3016 126.484 52.0412 126.209 51.8565C125.934 51.6695 125.589 51.576 125.172 51.576C124.874 51.576 124.616 51.6233 124.398 51.718C124.18 51.8104 124.011 51.9382 123.89 52.1016C123.772 52.2625 123.713 52.446 123.713 52.652C123.713 52.8248 123.753 52.974 123.833 53.0994C123.916 53.2249 124.024 53.3303 124.156 53.4155C124.291 53.4983 124.436 53.5682 124.59 53.625C124.744 53.6795 124.892 53.7244 125.034 53.7599L125.744 53.9446C125.976 54.0014 126.214 54.0784 126.458 54.1754C126.701 54.2725 126.927 54.4003 127.136 54.5589C127.344 54.7176 127.512 54.9141 127.64 55.1484C127.77 55.3828 127.835 55.6634 127.835 55.9901C127.835 56.402 127.729 56.7678 127.516 57.0874C127.305 57.407 126.999 57.6591 126.596 57.8438C126.196 58.0284 125.712 58.1207 125.144 58.1207C124.599 58.1207 124.128 58.0343 123.73 57.8615C123.333 57.6887 123.021 57.4437 122.796 57.1264C122.571 56.8068 122.447 56.428 122.423 55.9901H123.524C123.546 56.2528 123.631 56.4718 123.78 56.647C123.932 56.8198 124.124 56.9489 124.359 57.0341C124.596 57.117 124.855 57.1584 125.137 57.1584C125.447 57.1584 125.722 57.1098 125.964 57.0128C126.208 56.9134 126.4 56.776 126.539 56.6009C126.679 56.4233 126.749 56.2161 126.749 55.9794C126.749 55.764 126.687 55.5876 126.564 55.4503C126.443 55.313 126.279 55.1993 126.07 55.1094C125.865 55.0194 125.631 54.9401 125.371 54.8714L124.512 54.6371C123.929 54.4785 123.468 54.2453 123.127 53.9375C122.788 53.6297 122.619 53.2225 122.619 52.7159C122.619 52.2969 122.732 51.9311 122.96 51.6186C123.187 51.3061 123.495 51.0634 123.883 50.8906C124.271 50.7154 124.709 50.6278 125.197 50.6278C125.689 50.6278 126.124 50.7143 126.5 50.8871C126.879 51.0599 127.177 51.2978 127.395 51.6009C127.613 51.9015 127.727 52.2472 127.736 52.6378H126.678ZM136.213 52.6378C136.175 52.3016 136.019 52.0412 135.745 51.8565C135.47 51.6695 135.124 51.576 134.708 51.576C134.409 51.576 134.151 51.6233 133.933 51.718C133.716 51.8104 133.546 51.9382 133.426 52.1016C133.307 52.2625 133.248 52.446 133.248 52.652C133.248 52.8248 133.288 52.974 133.369 53.0994C133.452 53.2249 133.559 53.3303 133.692 53.4155C133.827 53.4983 133.971 53.5682 134.125 53.625C134.279 53.6795 134.427 53.7244 134.569 53.7599L135.279 53.9446C135.511 54.0014 135.749 54.0784 135.993 54.1754C136.237 54.2725 136.463 54.4003 136.671 54.5589C136.88 54.7176 137.048 54.9141 137.176 55.1484C137.306 55.3828 137.371 55.6634 137.371 55.9901C137.371 56.402 137.264 56.7678 137.051 57.0874C136.841 57.407 136.534 57.6591 136.132 57.8438C135.732 58.0284 135.247 58.1207 134.679 58.1207C134.135 58.1207 133.664 58.0343 133.266 57.8615C132.868 57.6887 132.557 57.4437 132.332 57.1264C132.107 56.8068 131.983 56.428 131.959 55.9901H133.06C133.081 56.2528 133.166 56.4718 133.316 56.647C133.467 56.8198 133.66 56.9489 133.894 57.0341C134.131 57.117 134.39 57.1584 134.672 57.1584C134.982 57.1584 135.258 57.1098 135.5 57.0128C135.743 56.9134 135.935 56.776 136.075 56.6009C136.214 56.4233 136.284 56.2161 136.284 55.9794C136.284 55.764 136.223 55.5876 136.1 55.4503C135.979 55.313 135.814 55.1993 135.606 55.1094C135.4 55.0194 135.167 54.9401 134.906 54.8714L134.047 54.6371C133.465 54.4785 133.003 54.2453 132.662 53.9375C132.324 53.6297 132.154 53.2225 132.154 52.7159C132.154 52.2969 132.268 51.9311 132.495 51.6186C132.723 51.3061 133.03 51.0634 133.419 50.8906C133.807 50.7154 134.245 50.6278 134.732 50.6278C135.225 50.6278 135.659 50.7143 136.036 50.8871C136.415 51.0599 136.713 51.2978 136.931 51.6009C137.148 51.9015 137.262 52.2472 137.272 52.6378H136.213ZM142.88 50.7273V58H141.782V50.7273H142.88ZM153.895 54.3636C153.895 55.1402 153.753 55.8078 153.469 56.3665C153.185 56.9228 152.795 57.3513 152.301 57.652C151.808 57.9503 151.248 58.0994 150.621 58.0994C149.991 58.0994 149.429 57.9503 148.934 57.652C148.442 57.3513 148.053 56.9216 147.769 56.3629C147.485 55.8042 147.343 55.1378 147.343 54.3636C147.343 53.5871 147.485 52.9207 147.769 52.3643C148.053 51.8056 148.442 51.3771 148.934 51.0788C149.429 50.7782 149.991 50.6278 150.621 50.6278C151.248 50.6278 151.808 50.7782 152.301 51.0788C152.795 51.3771 153.185 51.8056 153.469 52.3643C153.753 52.9207 153.895 53.5871 153.895 54.3636ZM152.808 54.3636C152.808 53.7718 152.712 53.2734 152.521 52.8686C152.331 52.4614 152.071 52.1536 151.739 51.9453C151.41 51.7346 151.038 51.6293 150.621 51.6293C150.202 51.6293 149.828 51.7346 149.499 51.9453C149.17 52.1536 148.909 52.4614 148.717 52.8686C148.528 53.2734 148.433 53.7718 148.433 54.3636C148.433 54.9555 148.528 55.455 148.717 55.8622C148.909 56.267 149.17 56.5748 149.499 56.7855C149.828 56.9938 150.202 57.098 150.621 57.098C151.038 57.098 151.41 56.9938 151.739 56.7855C152.071 56.5748 152.331 56.267 152.521 55.8622C152.712 55.455 152.808 54.9555 152.808 54.3636ZM164.233 50.7273V58H163.225L159.528 52.6662H159.46V58H158.363V50.7273H159.379L163.079 56.0682H163.146V50.7273H164.233ZM169.548 58H168.383L171.001 50.7273H172.268L174.885 58H173.721L171.665 52.0483H171.608L169.548 58ZM169.743 55.152H173.522V56.0753H169.743V55.152ZM179.036 58V50.7273H180.133V57.0554H183.428V58H179.036ZM198.449 53.0249C198.38 52.8094 198.288 52.6165 198.172 52.446C198.058 52.2732 197.922 52.1264 197.763 52.0057C197.605 51.8826 197.424 51.7891 197.22 51.7251C197.019 51.6612 196.797 51.6293 196.556 51.6293C196.146 51.6293 195.777 51.7346 195.448 51.9453C195.119 52.156 194.858 52.465 194.667 52.8722C194.477 53.277 194.383 53.773 194.383 54.3601C194.383 54.9496 194.478 55.4479 194.67 55.8551C194.862 56.2623 195.125 56.5713 195.459 56.782C195.792 56.9927 196.172 57.098 196.598 57.098C196.994 57.098 197.338 57.0175 197.632 56.8565C197.928 56.6955 198.156 56.4683 198.317 56.1747C198.481 55.8788 198.562 55.5308 198.562 55.1307L198.846 55.1839H196.765V54.2784H199.624V55.1058C199.624 55.7166 199.494 56.2469 199.233 56.6967C198.975 57.1442 198.618 57.4898 198.161 57.7337C197.706 57.9775 197.186 58.0994 196.598 58.0994C195.94 58.0994 195.363 57.9479 194.866 57.6449C194.371 57.3419 193.985 56.9122 193.708 56.3558C193.431 55.7971 193.292 55.1342 193.292 54.3672C193.292 53.7872 193.373 53.2663 193.534 52.8047C193.695 52.343 193.921 51.9512 194.212 51.6293C194.506 51.3049 194.85 51.0575 195.245 50.8871C195.643 50.7143 196.078 50.6278 196.549 50.6278C196.942 50.6278 197.308 50.6858 197.646 50.8018C197.987 50.9179 198.29 51.0824 198.555 51.2955C198.823 51.5085 199.044 51.7618 199.219 52.0554C199.394 52.3466 199.513 52.6697 199.574 53.0249H198.449ZM204.117 58V50.7273H206.709C207.273 50.7273 207.74 50.8243 208.112 51.0185C208.486 51.2126 208.765 51.4813 208.95 51.8246C209.135 52.1655 209.227 52.5597 209.227 53.0071C209.227 53.4522 209.134 53.844 208.947 54.1825C208.762 54.5187 208.482 54.7803 208.108 54.9673C207.737 55.1544 207.269 55.2479 206.706 55.2479H204.742V54.3033H206.606C206.961 54.3033 207.25 54.2524 207.473 54.1506C207.698 54.0488 207.862 53.9008 207.966 53.7067C208.071 53.5125 208.123 53.2794 208.123 53.0071C208.123 52.7325 208.069 52.4946 207.963 52.2933C207.859 52.0921 207.694 51.9382 207.469 51.8317C207.247 51.7228 206.954 51.6683 206.592 51.6683H205.214V58H204.117ZM207.707 54.7188L209.504 58H208.254L206.493 54.7188H207.707ZM219.98 54.3636C219.98 55.1402 219.838 55.8078 219.554 56.3665C219.27 56.9228 218.88 57.3513 218.385 57.652C217.893 57.9503 217.333 58.0994 216.706 58.0994C216.076 58.0994 215.514 57.9503 215.019 57.652C214.526 57.3513 214.138 56.9216 213.854 56.3629C213.57 55.8042 213.428 55.1378 213.428 54.3636C213.428 53.5871 213.57 52.9207 213.854 52.3643C214.138 51.8056 214.526 51.3771 215.019 51.0788C215.514 50.7782 216.076 50.6278 216.706 50.6278C217.333 50.6278 217.893 50.7782 218.385 51.0788C218.88 51.3771 219.27 51.8056 219.554 52.3643C219.838 52.9207 219.98 53.5871 219.98 54.3636ZM218.893 54.3636C218.893 53.7718 218.797 53.2734 218.605 52.8686C218.416 52.4614 218.156 52.1536 217.824 51.9453C217.495 51.7346 217.122 51.6293 216.706 51.6293C216.287 51.6293 215.913 51.7346 215.583 51.9453C215.254 52.1536 214.994 52.4614 214.802 52.8686C214.613 53.2734 214.518 53.7718 214.518 54.3636C214.518 54.9555 214.613 55.455 214.802 55.8622C214.994 56.267 215.254 56.5748 215.583 56.7855C215.913 56.9938 216.287 57.098 216.706 57.098C217.122 57.098 217.495 56.9938 217.824 56.7855C218.156 56.5748 218.416 56.267 218.605 55.8622C218.797 55.455 218.893 54.9555 218.893 54.3636ZM225.784 58L223.767 50.7273H224.921L226.338 56.3594H226.405L227.879 50.7273H229.023L230.496 56.3629H230.564L231.977 50.7273H233.135L231.114 58H230.01L228.479 52.5526H228.422L226.892 58H225.784ZM236.877 51.6719V50.7273H242.505V51.6719H240.236V58H239.142V51.6719H236.877ZM246.849 58V50.7273H247.946V53.8878H251.572V50.7273H252.673V58H251.572V54.8288H247.946V58H246.849Z" fill="#0C0404"/>
<defs>
<linearGradient id="paint0_linear_286_3070" x1="29.0001" y1="2.40674" x2="29.0001" y2="56.4067" gradientUnits="userSpaceOnUse">
<stop stop-color="#D35544"/>
<stop offset="0.619792" stop-color="#7B1824"/>
<stop offset="1" stop-color="#4D0918"/>
</linearGradient>
<linearGradient id="paint1_linear_286_3070" x1="164" y1="2" x2="164" y2="43" gradientUnits="userSpaceOnUse">
<stop stop-color="#D35544"/>
<stop offset="0.619792" stop-color="#7B1824"/>
<stop offset="1" stop-color="#4D0918"/>
</linearGradient>
<clipPath id="clip0_286_3070">
<rect y="2" width="58" height="55" fill="white"/>
</clipPath>
</defs>
</svg>
