<svg width="294" height="31" viewBox="0 0 294 31" fill="none" xmlns="http://www.w3.org/2000/svg">
<g clip-path="url(#clip0_411_9446)">
<path d="M23.9506 8.29696C22.2061 7.39582 19.4496 6.26212 15.8836 6.26212C9.96578 6.26212 6.23584 10.545 6.23584 15.758C6.23584 20.9711 9.92722 25.254 15.6812 25.254C19.4496 25.254 22.3314 24.1494 24.153 23.2191V29.0427C22.6495 29.8566 19.334 31 15.2378 31C6.44788 31 0 24.3528 0 15.758C0 7.16326 6.44788 0.516113 15.4402 0.516113C19.5364 0.516113 22.4567 1.73702 23.9506 2.55096V8.29696Z" fill="#0C0404"/>
<path d="M43.5737 0.516113C52.3733 0.516113 58.8501 7.27954 58.8501 15.758C58.8501 24.2366 52.4022 31 43.5737 31C34.7453 31 28.2974 24.3141 28.2974 15.758C28.2974 7.20202 34.7356 0.516113 43.5737 0.516113ZM43.5737 25.254C48.8458 25.254 52.5757 21.0196 52.5757 15.758C52.5757 10.4965 48.8458 6.26212 43.5737 6.26212C38.3017 6.26212 34.5718 10.545 34.5718 15.758C34.5718 20.9711 38.3017 25.254 43.5737 25.254Z" fill="#0C0404"/>
<path d="M88.1113 8.29696C86.3668 7.39582 83.6104 6.26212 80.0443 6.26212C74.1265 6.26212 70.3965 10.545 70.3965 15.758C70.3965 20.9711 74.0879 25.254 79.8419 25.254C83.6103 25.254 86.4921 24.1494 88.3137 23.2191V29.0427C86.8102 29.8566 83.4947 31 79.3985 31C70.5989 31 64.1607 24.3625 64.1607 15.758C64.1607 7.15357 70.6086 0.516113 79.6009 0.516113C83.6971 0.516113 86.6174 1.73702 88.1113 2.55096V8.29696Z" fill="#0C0404"/>
<path d="M132.919 29.3232V23.2962C134.943 24.3524 137.622 25.2536 140.253 25.4183C141.188 25.4571 142.075 25.4183 142.846 25.2536C145.072 24.9241 146.374 24.0714 146.374 22.647C146.374 20.6897 144.629 19.6723 140.62 18.2091C135.511 16.339 132.514 14.1782 132.514 9.08142C132.514 3.98462 136.813 0.525391 143.097 0.525391C146.017 0.525391 148.889 1.1746 150.72 1.98854V7.7733C149.014 6.75588 146.258 5.9807 143.588 5.9807C140.591 5.9807 138.644 7.16285 138.644 9.03297C138.644 10.748 140.224 11.9302 144.195 13.4321C149.303 15.4282 152.465 17.589 152.465 22.5211C152.465 27.8213 148.494 30.9996 141.603 30.9996C138.278 30.9996 135.039 30.2632 132.928 29.3329L132.919 29.3232Z" fill="#0C0404"/>
<path d="M156.975 30.4279V1.0874H175.741V6.33923H163.221V13.0251H173.842V18.0735H163.221V25.1664H176.358V30.4279H156.985H156.975Z" fill="#0C0404"/>
<path d="M193.378 30.8736H193.137L178.748 1.0874H185.552L189.359 9.56591C190.863 12.9476 192.193 15.8449 193.215 18.6936C194.063 16.62 195.846 12.4631 197.147 9.56591L200.954 1.0874H207.72L193.369 30.8736H193.378Z" fill="#0C0404"/>
<path d="M212.018 30.4279V1.0874H218.264V30.4279H212.018Z" fill="#0C0404"/>
<path d="M226.206 30.4279V1.0874H232.451V25.1664H243.68V30.4279H226.215H226.206Z" fill="#0C0404"/>
<path d="M246.484 30.4279V1.0874H252.73V25.1664H263.958V30.4279H246.494H246.484Z" fill="#0C0404"/>
<path d="M105.344 0.64209H105.103L90.9546 30.4283H97.4795C97.4795 30.4283 104.409 14.1689 105.257 12.1341C106.154 14.7019 112.997 30.4283 112.997 30.4283H119.522L105.344 0.64209Z" fill="#0C0404"/>
<path d="M279.813 0.64209H279.572L265.423 30.4283H271.948C271.948 30.4283 278.878 14.1689 279.726 12.1341C280.613 14.7019 287.465 30.4283 287.465 30.4283H293.99L279.813 0.64209Z" fill="#0C0404"/>
</g>
<defs>
<clipPath id="clip0_411_9446">
<rect width="294" height="30.4839" fill="white" transform="translate(0 0.516113)"/>
</clipPath>
</defs>
</svg>
