<?xml version="1.0" encoding="UTF-8"?><svg id="Layer_2" xmlns="http://www.w3.org/2000/svg" viewBox="0 0 1034.16 216"><defs><style>.cls-1{fill:#050401;}.cls-2{fill:#b49614;}</style></defs><g id="brand-color"><path class="cls-1" d="m336.06,45.7h25.2l46.98,127.8h-25.56l-11.88-31.86h-44.64l-11.7,31.86h-25.56l47.16-127.8Zm30.24,78.48l-17.64-52.74-18.36,52.74h36Zm52.91-82.08h24.12v101.16c0,4.32.72,7.26,2.16,8.82,1.44,1.44,3.42,2.16,5.94,2.16,1.92,0,3.9-.24,5.94-.72,2.04-.48,3.84-1.08,5.4-1.8l3.24,18.36c-3.24,1.56-7.02,2.76-11.34,3.6-4.32.84-8.22,1.26-11.7,1.26-7.56,0-13.44-1.98-17.64-5.94-4.08-4.08-6.12-9.84-6.12-17.28V42.1Zm112.77,126.54c-2.04.84-4.5,1.8-7.38,2.88s-6,1.92-9.36,2.52c-3.24.72-6.54,1.08-9.9,1.08-4.44,0-8.52-.78-12.24-2.34s-6.72-4.02-9-7.38c-2.16-3.48-3.24-7.98-3.24-13.5v-54.18h-12.42v-18.54h12.42v-30.6h24.12v30.6h19.8v18.54h-19.8v46.08c.12,3.24,1.02,5.58,2.7,7.02,1.68,1.44,3.78,2.16,6.3,2.16s4.98-.42,7.38-1.26c2.4-.84,4.32-1.56,5.76-2.16l4.86,19.08Zm55.25,6.66c-7.56,0-14.4-1.26-20.52-3.78-6.12-2.64-11.34-6.18-15.66-10.62-4.32-4.56-7.68-9.72-10.08-15.48-2.28-5.88-3.42-12.06-3.42-18.54,0-9,1.98-17.22,5.94-24.66,4.08-7.44,9.84-13.38,17.28-17.82,7.56-4.56,16.44-6.84,26.64-6.84s19.14,2.28,26.46,6.84c7.32,4.44,12.9,10.38,16.74,17.82,3.96,7.32,5.94,15.24,5.94,23.76,0,1.44-.06,2.94-.18,4.5-.12,1.44-.24,2.64-.36,3.6h-72.9c.48,4.8,1.86,9,4.14,12.6,2.4,3.6,5.4,6.36,9,8.28,3.72,1.8,7.68,2.7,11.88,2.7,4.8,0,9.3-1.14,13.5-3.42,4.32-2.4,7.26-5.52,8.82-9.36l20.7,5.76c-2.28,4.8-5.58,9.06-9.9,12.78-4.2,3.72-9.18,6.66-14.94,8.82-5.76,2.04-12.12,3.06-19.08,3.06Zm-24.66-56.52h49.32c-.48-4.8-1.86-8.94-4.14-12.42-2.16-3.6-5.04-6.36-8.64-8.28-3.6-2.04-7.62-3.06-12.06-3.06s-8.28,1.02-11.88,3.06c-3.48,1.92-6.36,4.68-8.64,8.28-2.16,3.48-3.48,7.62-3.96,12.42Zm144.83-18.72c-7.32,0-13.86,1.44-19.62,4.32-5.76,2.76-9.9,6.78-12.42,12.06v57.06h-24.12v-94.32h22.14v20.16c3.36-6.48,7.62-11.58,12.78-15.3,5.16-3.72,10.62-5.76,16.38-6.12h3.06c.72,0,1.32.06,1.8.18v21.96Zm104.53,51.66v21.78h-88.74V45.7h87.12v21.78h-62.28v30.78h53.82v20.16h-53.82v33.3h63.9Zm52.17,22.32c-6.24,0-12-1.2-17.28-3.6-5.16-2.52-9.66-6-13.5-10.44-3.72-4.44-6.6-9.54-8.64-15.3-2.04-5.76-3.06-11.88-3.06-18.36,0-6.84,1.08-13.2,3.24-19.08,2.16-5.88,5.16-11.04,9-15.48,3.96-4.56,8.58-8.04,13.86-10.44,5.4-2.52,11.34-3.78,17.82-3.78,7.32,0,13.74,1.68,19.26,5.04,5.52,3.24,10.08,7.62,13.68,13.14v-16.56h21.06v89.82c0,9.36-2.28,17.34-6.84,23.94-4.44,6.72-10.62,11.82-18.54,15.3-7.92,3.6-16.92,5.4-27,5.4s-18.84-1.74-25.92-5.22c-7.08-3.36-13.14-8.16-18.18-14.4l13.14-12.78c3.6,4.44,8.1,7.92,13.5,10.44,5.52,2.52,11.34,3.78,17.46,3.78,5.16,0,9.84-.96,14.04-2.88,4.32-1.8,7.74-4.68,10.26-8.64,2.64-3.84,3.96-8.82,3.96-14.94v-11.88c-3.12,5.4-7.56,9.6-13.32,12.6-5.64,2.88-11.64,4.32-18,4.32Zm8.1-19.26c2.64,0,5.16-.42,7.56-1.26,2.4-.84,4.62-1.98,6.66-3.42,2.04-1.44,3.84-3.12,5.4-5.04,1.56-2.04,2.76-4.08,3.6-6.12v-22.5c-1.44-3.72-3.48-6.96-6.12-9.72-2.52-2.76-5.4-4.86-8.64-6.3-3.12-1.56-6.42-2.34-9.9-2.34-3.72,0-7.08.78-10.08,2.34-3,1.56-5.58,3.78-7.74,6.66-2.16,2.76-3.84,5.88-5.04,9.36-1.08,3.36-1.62,6.9-1.62,10.62s.66,7.44,1.98,10.8,3.12,6.3,5.4,8.82c2.4,2.52,5.16,4.5,8.28,5.94,3.24,1.44,6.66,2.16,10.26,2.16Zm112.64,20.52c-7.68,0-14.58-1.26-20.7-3.78-6.12-2.64-11.34-6.24-15.66-10.8-4.2-4.56-7.44-9.78-9.72-15.66-2.28-5.88-3.42-12.06-3.42-18.54s1.14-12.84,3.42-18.72c2.28-5.88,5.52-11.1,9.72-15.66,4.32-4.56,9.54-8.1,15.66-10.62,6.12-2.64,13.02-3.96,20.7-3.96s14.52,1.32,20.52,3.96c6.12,2.52,11.34,6.06,15.66,10.62,4.32,4.56,7.56,9.78,9.72,15.66,2.28,5.88,3.42,12.12,3.42,18.72s-1.14,12.66-3.42,18.54c-2.16,5.88-5.4,11.1-9.72,15.66-4.2,4.56-9.36,8.16-15.48,10.8-6.11,2.52-13.01,3.78-20.7,3.78Zm-24.66-48.78c0,5.52,1.08,10.44,3.24,14.76,2.16,4.2,5.1,7.5,8.82,9.9,3.72,2.4,7.92,3.6,12.6,3.6s8.7-1.2,12.42-3.6c3.71-2.52,6.65-5.88,8.82-10.08,2.28-4.32,3.42-9.24,3.42-14.76s-1.14-10.26-3.42-14.58c-2.16-4.32-5.1-7.68-8.82-10.08-3.72-2.4-7.86-3.6-12.42-3.6s-8.88,1.26-12.6,3.78c-3.72,2.4-6.66,5.76-8.82,10.08-2.16,4.2-3.24,9.06-3.24,14.58Z"/><path class="cls-2" d="m203.29,142.94c-7.02,0-12.71,5.69-12.71,12.71,0,19.27-15.67,34.94-34.94,34.94s-34.94-15.67-34.94-34.94v-34.94h34.94c33.28,0,60.35-27.07,60.35-60.35S188.93,0,155.65,0c-19.35,0-36.6,9.17-47.65,23.37C96.95,9.17,79.71,0,60.35,0,27.07,0,0,27.07,0,60.35c0,7.02,5.69,12.71,12.71,12.71s12.71-5.69,12.71-12.71c0-19.27,15.67-34.94,34.94-34.94s34.94,15.67,34.94,34.94v34.94h-34.94C27.07,95.29,0,122.37,0,155.65s27.07,60.35,60.35,60.35c19.35,0,36.6-9.17,47.65-23.38,11.05,14.21,28.29,23.38,47.65,23.38,33.28,0,60.35-27.07,60.35-60.35,0-7.02-5.69-12.71-12.71-12.71Zm-47.65-117.53c19.27,0,34.94,15.67,34.94,34.94s-15.67,34.94-34.94,34.94h-34.94v-34.94c0-19.27,15.67-34.94,34.94-34.94ZM60.35,190.59c-19.27,0-34.94-15.67-34.94-34.94s15.67-34.94,34.94-34.94h34.94v34.94c0,19.27-15.67,34.94-34.94,34.94Z"/></g></svg>