<svg width="220" height="46" viewBox="0 0 220 46" fill="none" xmlns="http://www.w3.org/2000/svg">
<g clip-path="url(#clip0_411_9443)">
<path d="M71.491 9.73249H76.8519L86.8461 36.9492H81.4087L78.8814 30.1642H69.385L66.896 36.9492H61.4586L71.491 9.73249ZM77.9241 26.4458L74.1715 15.2142L70.2657 26.4458H77.9241ZM89.1798 8.96582H94.3109V30.5092C94.3109 31.4291 94.4641 32.0553 94.7704 32.3875C95.0768 32.6942 95.498 32.8475 96.0341 32.8475C96.4425 32.8475 96.8637 32.7964 97.2977 32.6942C97.7317 32.5919 98.1146 32.4642 98.4464 32.3108L99.1357 36.2208C98.4465 36.553 97.6423 36.8086 96.7233 36.9875C95.8043 37.1664 94.9747 37.2558 94.2343 37.2558C92.6261 37.2558 91.3752 36.8342 90.4817 35.9908C89.6138 35.1219 89.1798 33.8953 89.1798 32.3108V8.96582ZM113.17 35.9142C112.736 36.093 112.212 36.2975 111.6 36.5275C110.987 36.7575 110.323 36.9364 109.609 37.0642C108.919 37.2175 108.217 37.2941 107.502 37.2941C106.558 37.2941 105.69 37.128 104.899 36.7958C104.107 36.4636 103.469 35.9397 102.984 35.2241C102.525 34.483 102.295 33.5247 102.295 32.3491V20.8108H99.6526V16.8625H102.295V10.3458H107.426V16.8625H111.638V20.8108H107.426V30.6242C107.451 31.3142 107.643 31.8125 108 32.1192C108.358 32.4258 108.804 32.5792 109.341 32.5792C109.877 32.5792 110.4 32.4897 110.91 32.3108C111.421 32.1319 111.829 31.9786 112.136 31.8508L113.17 35.9142ZM124.923 37.3325C123.315 37.3325 121.86 37.0642 120.558 36.5275C119.256 35.9653 118.146 35.2114 117.227 34.2658C116.308 33.2947 115.593 32.1958 115.082 30.9692C114.597 29.7169 114.355 28.4008 114.355 27.0208C114.355 25.1042 114.776 23.3536 115.618 21.7692C116.486 20.1847 117.712 18.9197 119.294 17.9742C120.903 17.003 122.792 16.5175 124.961 16.5175C127.131 16.5175 129.033 17.003 130.59 17.9742C132.148 18.9197 133.335 20.1847 134.152 21.7692C134.994 23.328 135.415 25.0147 135.415 26.8292C135.415 27.1358 135.402 27.4553 135.377 27.7875C135.351 28.0942 135.326 28.3497 135.3 28.5542H119.792C119.894 29.5764 120.188 30.4708 120.673 31.2375C121.183 32.0042 121.822 32.5919 122.587 33.0008C123.379 33.3842 124.221 33.5758 125.115 33.5758C126.136 33.5758 127.093 33.333 127.987 32.8475C128.906 32.3364 129.531 31.6719 129.863 30.8542L134.266 32.0808C133.781 33.103 133.079 34.0103 132.16 34.8025C131.267 35.5947 130.207 36.2208 128.982 36.6808C127.757 37.1153 126.404 37.3325 124.923 37.3325ZM119.677 25.2958H130.169C130.067 24.2736 129.774 23.3919 129.288 22.6508C128.829 21.8842 128.216 21.2964 127.45 20.8875C126.685 20.453 125.829 20.2358 124.885 20.2358C123.94 20.2358 123.123 20.453 122.358 20.8875C121.617 21.2964 121.005 21.8842 120.52 22.6508C120.06 23.3919 119.779 24.2736 119.677 25.2958ZM150.487 21.3092C148.93 21.3092 147.539 21.6158 146.314 22.2292C145.088 22.8169 144.207 23.673 143.671 24.7975V36.9492H138.54V16.8625H143.25V21.1558C143.965 19.7758 144.871 18.6897 145.969 17.8975C147.067 17.1053 148.228 16.6708 149.453 16.5942H150.104C150.258 16.5942 150.385 16.6069 150.487 16.6325V21.3092ZM172.724 32.3108V36.9492H153.846V9.73249H172.38V14.3708H159.131V20.9258H170.58V25.2192H159.131V32.3108H172.724ZM183.823 37.0642C182.495 37.0642 181.27 36.8086 180.147 36.2975C179.049 35.7608 178.092 35.0197 177.275 34.0742C176.483 33.1286 175.871 32.0425 175.437 30.8158C175.003 29.5892 174.786 28.2858 174.786 26.9058C174.786 25.4492 175.015 24.0947 175.475 22.8425C175.934 21.5903 176.573 20.4914 177.39 19.5458C178.232 18.5747 179.215 17.8336 180.338 17.3225C181.487 16.7858 182.75 16.5175 184.129 16.5175C185.686 16.5175 187.052 16.8753 188.226 17.5908C189.4 18.2808 190.371 19.2136 191.136 20.3892V16.8625H195.617V35.9908C195.617 37.9841 195.132 39.6836 194.161 41.0891C193.217 42.5203 191.902 43.6064 190.217 44.3475C188.533 45.1142 186.618 45.4975 184.474 45.4975C182.329 45.4975 180.466 45.1269 178.96 44.3858C177.453 43.6703 176.164 42.648 175.092 41.3192L177.887 38.5975C178.653 39.543 179.611 40.2841 180.759 40.8208C181.934 41.3575 183.172 41.6258 184.474 41.6258C185.571 41.6258 186.567 41.4214 187.46 41.0125C188.379 40.6292 189.107 40.0158 189.643 39.1725C190.205 38.3547 190.485 37.2942 190.485 35.9908V33.4608C189.822 34.6108 188.877 35.5053 187.652 36.1442C186.452 36.7575 185.176 37.0642 183.823 37.0642ZM185.546 32.9625C186.107 32.9625 186.643 32.873 187.154 32.6942C187.665 32.5153 188.137 32.2725 188.571 31.9658C189.005 31.6592 189.388 31.3014 189.72 30.8925C190.051 30.458 190.307 30.0236 190.485 29.5892V24.7975C190.179 24.0053 189.745 23.3153 189.183 22.7275C188.647 22.1397 188.035 21.6925 187.345 21.3858C186.682 21.0536 185.98 20.8875 185.239 20.8875C184.448 20.8875 183.733 21.0536 183.095 21.3858C182.457 21.718 181.908 22.1908 181.449 22.8042C180.989 23.3919 180.632 24.0564 180.376 24.7975C180.147 25.513 180.032 26.2669 180.032 27.0592C180.032 27.8514 180.172 28.6436 180.453 29.3592C180.734 30.0747 181.117 30.7008 181.602 31.2375C182.112 31.7742 182.699 32.1958 183.363 32.5025C184.052 32.8092 184.78 32.9625 185.546 32.9625ZM209.508 37.3325C207.874 37.3325 206.406 37.0642 205.104 36.5275C203.802 35.9653 202.692 35.1986 201.773 34.2275C200.88 33.2564 200.19 32.1447 199.705 30.8925C199.22 29.6403 198.978 28.3242 198.978 26.9442C198.978 25.5642 199.22 24.2097 199.705 22.9575C200.19 21.7053 200.88 20.5936 201.773 19.6225C202.692 18.6514 203.802 17.8975 205.104 17.3608C206.406 16.7986 207.874 16.5175 209.508 16.5175C211.142 16.5175 212.597 16.7986 213.873 17.3608C215.175 17.8975 216.286 18.6514 217.205 19.6225C218.124 20.5936 218.813 21.7053 219.272 22.9575C219.757 24.2097 220 25.5386 220 26.9442C220 28.3497 219.757 29.6403 219.272 30.8925C218.813 32.1447 218.124 33.2564 217.205 34.2275C216.311 35.1986 215.214 35.9653 213.912 36.5275C212.612 37.0642 211.144 37.3325 209.508 37.3325ZM204.262 26.9442C204.262 28.1197 204.492 29.1675 204.951 30.0875C205.411 30.9819 206.036 31.6847 206.828 32.1958C207.619 32.7069 208.512 32.9625 209.508 32.9625C210.504 32.9625 211.359 32.7069 212.15 32.1958C212.939 31.6591 213.565 30.9436 214.026 30.0492C214.511 29.1292 214.754 28.0814 214.754 26.9058C214.754 25.7303 214.511 24.7208 214.026 23.8008C213.567 22.8808 212.941 22.1653 212.15 21.6542C211.359 21.143 210.478 20.8875 209.508 20.8875C208.538 20.8875 207.619 21.1558 206.828 21.6925C206.036 22.2036 205.411 22.9192 204.951 23.8392C204.492 24.7336 204.262 25.7686 204.262 26.9442Z" fill="#0C0404"/>
<path d="M43.2465 30.4409C41.7531 30.4409 40.5427 31.6527 40.5427 33.1477C40.5427 37.2515 37.2091 40.5886 33.1098 40.5886C29.0104 40.5886 25.6769 37.2515 25.6769 33.1477V25.7068H33.1098C40.1895 25.7068 45.9482 19.9419 45.9482 12.8544C45.9482 5.76704 40.1917 0 33.1119 0C28.9955 0 25.3259 1.95287 22.9752 4.97694C20.6245 1.95287 16.957 0 12.8384 0C5.75868 0 0 5.76491 0 12.8523C0 14.3473 1.21045 15.5591 2.70384 15.5591C4.19722 15.5591 5.40767 14.3473 5.40767 12.8523C5.40767 8.74852 8.7412 5.41139 12.8406 5.41139C16.9399 5.41139 20.2735 8.74852 20.2735 12.8523V20.2932H12.8406C5.75868 20.2932 0 26.0603 0 33.1477C0 40.2351 5.75868 46 12.8384 46C16.9548 46 20.6245 44.0471 22.9752 41.0209C25.3259 44.0471 28.9934 46 33.1119 46C40.1917 46 45.9503 40.2351 45.9503 33.1477C45.9503 31.6527 44.7399 30.4409 43.2465 30.4409ZM33.1098 5.41139C37.2091 5.41139 40.5427 8.74852 40.5427 12.8523C40.5427 16.9561 37.2091 20.2932 33.1098 20.2932H25.6769V12.8523C25.6769 8.74852 29.0104 5.41139 33.1098 5.41139ZM12.8384 40.5886C8.73907 40.5886 5.40555 37.2515 5.40555 33.1477C5.40555 29.0439 8.73907 25.7068 12.8384 25.7068H20.2713V33.1477C20.2713 37.2515 16.9378 40.5886 12.8384 40.5886Z" fill="#0C0404"/>
</g>
<defs>
<clipPath id="clip0_411_9443">
<rect width="220" height="46" fill="white"/>
</clipPath>
</defs>
</svg>
