<svg width="58" height="55" viewBox="0 0 58 55" fill="none" xmlns="http://www.w3.org/2000/svg">
<path d="M57.9183 39.9323C57.5884 41.1597 57.0146 42.2381 55.9889 43.0333C55.0356 43.7713 53.9632 44.1479 52.7448 44.1464C46.7037 44.1388 40.6612 44.1433 34.6202 44.1433C34.4696 44.1433 34.319 44.1509 34.1684 44.1433C33.7858 44.1192 33.6216 44.193 33.8837 44.5982C35.423 46.9824 36.9517 49.3726 38.4758 51.7658C38.643 52.0293 38.8659 52.0745 39.1461 52.073C40.3314 52.0655 41.5182 52.0655 42.7035 52.073C43.5545 52.0775 44.0575 52.5203 44.0545 53.2448C44.05 53.9662 43.5469 54.4045 42.69 54.4045C33.5614 54.4075 24.4329 54.4075 15.3058 54.4045C14.4534 54.4045 13.9473 53.9617 13.9473 53.2388C13.9473 52.5143 14.4488 52.0775 15.3028 52.073C16.47 52.067 17.6373 52.0565 18.803 52.079C19.1931 52.0866 19.416 51.9435 19.6208 51.6212C21.0802 49.3214 22.5593 47.0321 24.0277 44.7368C24.1256 44.5846 24.3289 44.431 24.2371 44.2473C24.1407 44.0515 23.8952 44.1509 23.719 44.1509C17.809 44.1464 11.899 44.1464 5.989 44.1464C2.6861 44.1464 1.14233 43.0454 0.0820312 39.9353V8.47863C0.377229 7.41079 0.836594 6.43784 1.67249 5.67425C2.65598 4.7766 3.80062 4.27206 5.14407 4.27055C14.4232 4.26904 23.7024 4.26754 32.9815 4.27055C33.8506 4.27055 34.3386 4.69226 34.3461 5.42423C34.3536 6.17879 33.8626 6.60502 32.9529 6.60502C23.9373 6.60803 14.9218 6.60803 5.90617 6.60502C5.35794 6.60502 4.80671 6.61105 4.29162 6.80684C3.06263 7.27072 2.4888 8.21656 2.38789 9.48621C2.37885 9.59767 2.38186 9.71213 2.38186 9.82358C2.38186 19.404 2.38186 28.9843 2.38186 38.5647C2.38186 39.0572 2.42554 39.5452 2.61983 40C3.12287 41.1838 4.07022 41.723 5.31878 41.8044C5.44982 41.8134 5.58235 41.8089 5.71339 41.8089C21.2414 41.8089 36.7694 41.8089 52.2959 41.8119C53.6695 41.8119 54.769 41.3661 55.3624 40.0452C55.5898 39.5392 55.6214 38.994 55.6199 38.4457C55.6184 32.8671 55.6184 27.2869 55.6199 21.7083C55.6199 20.886 55.9663 20.4085 56.6396 20.3197C57.2149 20.2444 57.5959 20.5697 57.9183 20.9929V39.9323ZM35.7483 51.9947C35.7091 51.9074 35.6835 51.82 35.6368 51.7462C34.0765 49.3093 32.5101 46.8754 30.9543 44.4355C30.7977 44.1915 30.5974 44.1403 30.3353 44.1418C29.4693 44.1494 28.6033 44.1584 27.7388 44.1373C27.3758 44.1283 27.1589 44.2533 26.9631 44.562C25.4917 46.8784 24.0006 49.1813 22.5231 51.4932C22.4207 51.6543 22.2369 51.7974 22.2957 52.0324C23.1496 52.1137 35.2814 52.0851 35.7483 51.9947ZM57.9183 15.6944C57.7707 16.0182 57.6532 16.3601 57.4709 16.6643C56.7043 17.937 55.5371 18.5138 54.0762 18.5214C51.9495 18.5319 49.8229 18.5319 47.6963 18.5184C47.2896 18.5154 46.9854 18.6343 46.6992 18.9265C45.648 20.0019 44.5756 21.0562 43.5093 22.118C43.3888 22.237 43.2713 22.3589 43.1433 22.4689C42.7427 22.8168 42.2863 22.9508 41.7848 22.7385C41.2757 22.5231 41.0724 22.0894 41.0649 21.5622C41.0528 20.7926 41.0272 20.02 41.0709 19.2518C41.1025 18.6886 40.9248 18.5033 40.3434 18.5078C38.6762 18.5214 37.4005 17.8316 36.6745 16.2773C36.4155 15.7215 36.3432 15.1221 36.3417 14.5196C36.3357 11.1384 36.3447 7.7572 36.3357 4.37598C36.3296 1.75534 38.3795 0.372733 40.3073 0.407374C44.8045 0.487198 49.3033 0.484185 53.8005 0.410386C55.998 0.374239 57.4122 1.5234 57.9183 3.29007V15.6914V15.6944ZM43.4701 18.5696C43.5153 18.5892 43.5605 18.6087 43.6057 18.6283C44.2247 18.0123 44.8572 17.4114 45.4552 16.7758C45.898 16.3059 46.401 16.098 47.0547 16.1056C49.3876 16.1297 51.7206 16.1131 54.0536 16.1161C54.4 16.1161 54.7268 16.0785 55.0205 15.8751C55.5311 15.5212 55.6184 14.9941 55.6184 14.4323C55.6184 11.1655 55.6199 7.89727 55.6184 4.63051C55.6184 3.21627 55.1726 2.77046 53.7644 2.76896C50.1889 2.76745 46.6149 2.76896 43.0394 2.76896C42.1176 2.76896 41.1944 2.7539 40.2741 2.77498C39.2952 2.79757 38.7545 3.30513 38.753 4.21031C38.7439 7.70298 38.7439 11.1957 38.753 14.6883C38.7545 15.595 39.2831 16.098 40.2079 16.1116C40.8284 16.1206 41.4504 16.1071 42.0709 16.1161C42.9565 16.1297 43.4264 16.5815 43.4671 17.4641C43.4837 17.8316 43.4701 18.2006 43.4701 18.5681V18.5696ZM28.8653 35.9787C26.4947 35.9787 24.1241 35.9787 21.7535 35.9787C21.377 35.9787 20.9974 35.9742 20.6435 35.8251C20.2233 35.6474 19.9642 35.2995 19.9627 34.8642C19.9552 33.2346 19.791 31.5959 20.1209 29.9784C20.6555 27.3653 22.0939 25.3832 24.3816 24.0277C24.7793 23.7913 24.8395 23.6934 24.4826 23.3424C22.6752 21.5652 22.0803 19.407 22.8017 16.9942C23.5307 14.5573 25.2431 13.0753 27.7418 12.5662C31.1607 11.8689 34.6443 14.3585 35.1368 17.7999C35.4471 19.9642 34.807 21.8047 33.2752 23.3394C32.9815 23.6331 32.9017 23.7551 33.328 24.0096C36.3251 25.8049 37.7589 28.4994 37.8222 31.9544C37.8373 32.7617 37.8297 33.5689 37.8222 34.3762C37.8117 35.5284 37.3869 35.9652 36.2001 35.9727C33.7542 35.9878 31.3083 35.9772 28.8623 35.9772L28.8653 35.9787ZM28.8488 33.5825C30.8429 33.5825 32.837 33.5719 34.8326 33.59C35.2723 33.5945 35.444 33.456 35.4184 33.0102C35.3717 32.2059 35.4516 31.4016 35.3145 30.5959C34.8808 28.0325 32.8008 25.8396 30.2811 25.332C27.5339 24.7793 24.829 25.9194 23.3665 28.1786C22.4267 29.632 22.3017 31.2254 22.3363 32.8821C22.3469 33.4093 22.4779 33.6036 23.0352 33.5945C24.972 33.5644 26.9104 33.5825 28.8488 33.5825ZM24.9374 18.7774C24.9284 20.9824 26.6529 22.7445 28.8352 22.7596C31.0281 22.7746 32.8083 21.0291 32.8189 18.8527C32.8294 16.6312 31.0703 14.8344 28.8819 14.8314C26.6935 14.8284 24.9464 16.577 24.9374 18.7774Z" fill="#0C0404"/>
</svg>
